<?xml version="1.0" encoding="utf-8"?>
<!-- Generator: Adobe Illustrator 15.1.0, SVG Export Plug-In  -->
<!DOCTYPE svg PUBLIC "-//W3C//DTD SVG 1.1//EN" "http://www.w3.org/Graphics/SVG/1.1/DTD/svg11.dtd" [
	<!ENTITY ns_flows "http://ns.adobe.com/Flows/1.0/">
]>
<svg version="1.1"
	 xmlns="http://www.w3.org/2000/svg" xmlns:xlink="http://www.w3.org/1999/xlink" xmlns:a="http://ns.adobe.com/AdobeSVGViewerExtensions/3.0/"
	 x="0px" y="0px" width="190px" height="80px" viewBox="0 0 190 80" overflow="visible" enable-background="new 0 0 190 80"
	 xml:space="preserve">
<defs>
</defs>
<path fill="#EB0080" d="M57.48,20.902c-2.374,0-3.48,1.334-3.48,4v10.6c0,2.668,1.106,4,3.48,4c2.4,0,3.52-1.332,3.52-4v-10.6
	C61,22.236,59.88,20.902,57.48,20.902z"/>
<polygon fill="#EB0080" points="140.828,34 146.668,34 143.748,23.279 "/>
<path fill="#EB0080" d="M180,0H10C4.5,0,0,4.5,0,10v40c0,5.5,4.5,10,10,10L0,80l30.125-19.875L29.906,60H180c5.5,0,10-4.5,10-10V10
	C190,4.5,185.5,0,180,0z M26.48,39.502c2.4,0,3.52-1.332,3.52-4V34h-2.53c-0.587,0-1.047-0.161-1.38-0.628
	c-0.334-0.467-0.5-0.997-0.5-1.665c0-0.613,0.173-1.319,0.52-1.813C26.457,29.401,26.91,29,27.47,29h6.72
	c0.586,0,1.011,0.366,1.345,0.751C35.868,30.138,36,30.77,36,31.303v4.199c0,3.254-0.858,5.641-2.645,7.16s-4.156,2.281-7.142,2.281
	c-2.96,0-5.54-0.762-7.326-2.281C17.1,41.143,16,38.756,16,35.502v-10.6c0-3.254,1.102-5.64,2.875-7.16s4.194-2.28,7.048-2.28
	c2.933,0,5.394,0.707,7.274,2.12c1.88,1.414,2.847,3.36,2.847,5.84c0,1.146-0.227,1.928-0.707,2.34
	c-0.48,0.414-1.273,0.621-2.393,0.621c-2.054,0-3.09-0.627-3.116-1.881c0-0.373-0.012-0.686-0.038-0.939
	c-0.027-0.254-0.106-0.566-0.24-0.939c-0.134-0.373-0.319-0.666-0.56-0.881c-0.24-0.213-0.593-0.406-1.06-0.58
	c-0.467-0.173-0.855-0.26-1.495-0.26c-2.4,0-3.435,1.334-3.435,4v10.6C23,38.17,24.106,39.502,26.48,39.502z M43.718,44.021
	c-0.608,0.615-1.331,0.922-2.168,0.922c-0.864,0-1.601-0.307-2.208-0.922c-0.608-0.611-0.912-1.332-0.912-2.158
	c0-0.854,0.297-1.58,0.891-2.182c0.595-0.6,1.338-0.898,2.229-0.898c0.837,0,1.56,0.307,2.168,0.92
	c0.607,0.613,0.912,1.334,0.912,2.16S44.326,43.41,43.718,44.021z M67,35.502c0,3.254-0.919,5.641-2.705,7.16
	c-1.787,1.52-4.186,2.281-7.172,2.281c-2.96,0-5.495-0.762-7.281-2.281C48.054,41.143,47,38.756,47,35.502v-10.6
	c0-3.254,1.048-5.64,2.835-7.16c1.786-1.52,4.237-2.28,7.197-2.28c2.986,0,5.437,0.76,7.224,2.28S67,21.648,67,24.902V35.502z
	 M74.998,44.021c-0.608,0.615-1.331,0.922-2.168,0.922c-0.864,0-1.601-0.307-2.208-0.922c-0.608-0.611-0.912-1.332-0.912-2.158
	c0-0.854,0.297-1.58,0.891-2.182c0.595-0.6,1.338-0.898,2.229-0.898c0.837,0,1.56,0.307,2.168,0.92
	c0.607,0.613,0.912,1.334,0.912,2.16S75.605,43.41,74.998,44.021z M96.555,39.502c0.746,0,1.323-0.119,1.817-0.359
	c0.493-0.24,0.825-0.605,1.039-1.1c0.213-0.494,0.342-0.9,0.409-1.221c0.066-0.32,0.121-0.76,0.175-1.32
	c0.106-1.252,1.13-1.879,3.077-1.879c1.146,0,1.959,0.207,2.439,0.619c0.48,0.414,0.719,1.193,0.719,2.34
	c0,2.588-0.94,4.627-2.82,6.121c-1.88,1.492-4.288,2.24-7.221,2.24c-2.854,0-4.961-0.762-6.734-2.281
	C87.681,41.143,87,38.756,87,35.502v-10.6c0-3.254,0.681-5.64,2.455-7.16c1.773-1.52,3.984-2.28,6.837-2.28
	c2.933,0,5.288,0.707,7.168,2.12c1.88,1.414,2.794,3.36,2.794,5.84c0,1.146-0.253,1.928-0.733,2.34
	c-0.48,0.414-1.286,0.621-2.406,0.621c-2,0-3.043-0.627-3.123-1.881c-0.08-2.4-1.184-3.6-3.477-3.6c-2.4,0-3.516,1.334-3.516,4v10.6
	C93,38.17,94.127,39.502,96.555,39.502z M130,42.783c0,0.613-0.393,1.086-1.005,1.42c-0.614,0.334-1.39,0.5-2.243,0.5
	c-0.854,0-1.403-0.166-2.016-0.5c-0.614-0.334-0.736-0.807-0.736-1.42V32h-8v10.783c0,0.613-0.492,1.086-1.105,1.42
	c-0.614,0.334-1.439,0.5-2.293,0.5s-1.827-0.166-2.44-0.5c-0.614-0.334-1.161-0.807-1.161-1.42V17.342c0-0.613,0.501-1.08,1.114-1.4
	c0.613-0.32,1.444-0.48,2.297-0.48s1.82,0.16,2.434,0.48c0.613,0.32,1.154,0.787,1.154,1.4V27h8v-9.658
	c0-0.613,0.101-1.08,0.714-1.4c0.613-0.32,1.244-0.48,2.097-0.48s1.621,0.16,2.234,0.48c0.613,0.32,0.954,0.787,0.954,1.4V42.783z
	 M154.088,43.943c-0.867,0.506-1.767,0.76-2.699,0.76c-1.147,0-1.827-0.158-2.041-0.932L147.988,39h-8.439l-1.36,4.771
	c-0.214,0.773-0.894,1.046-2.04,1.046c-0.934,0-1.834-0.312-2.7-0.817c-0.866-0.508-1.3-1.136-1.3-1.829
	c0-0.08,0.025-0.24,0.08-0.453l7.439-24.408c0.213-0.667,0.7-1.184,1.461-1.544c0.76-0.36,1.633-0.542,2.619-0.542
	s1.86,0.179,2.62,0.539c0.761,0.36,1.247,0.873,1.46,1.54l7.48,24.4c0.053,0.213,0.08,0.359,0.08,0.439
	C155.389,42.836,154.955,43.436,154.088,43.943z M173.889,20.155c-0.334,0.531-0.795,0.845-1.381,0.845H167v21.77
	c0,0.617-0.312,1.094-0.926,1.43c-0.615,0.336-1.351,0.504-2.204,0.504s-1.462-0.168-2.075-0.504S161,43.387,161,42.77V21h-5.771
	c-0.587,0-1.047-0.314-1.381-0.845c-0.333-0.531-0.5-1.209-0.5-1.987c0-0.725,0.16-1.597,0.48-2.128s0.787-1.04,1.4-1.04h17.279
	c0.613,0,1.08,0.497,1.4,1.028s0.48,1.299,0.48,2.025C174.389,18.83,174.221,19.624,173.889,20.155z"/>
</svg>
